<?xml version="1.0" standalone="no"?>
<!DOCTYPE svg PUBLIC "-//W3C//DTD SVG 20010904//EN"
 "http://www.w3.org/TR/2001/REC-SVG-20010904/DTD/svg10.dtd">
<svg version="1.0" xmlns="http://www.w3.org/2000/svg"
 width="460.000000pt" height="460.000000pt" viewBox="0 0 460.000000 460.000000"
 preserveAspectRatio="xMidYMid meet">
<metadata>
Created by potrace 1.11, written by Peter Selinger 2001-2013
</metadata>
<g transform="translate(0.000000,460.000000) scale(0.100000,-0.100000)"
fill="#000000" stroke="none">
<path d="M2858 3096 c-60 -23 -139 -80 -199 -143 -30 -32 -190 -204 -354 -383
-165 -179 -302 -327 -305 -330 -5 -4 -229 -246 -294 -318 -9 -9 -134 109 -557
532 -516 514 -548 544 -604 565 -80 30 -188 27 -258 -9 -65 -33 -161 -131
-194 -199 -23 -46 -28 -69 -28 -131 0 -141 -28 -108 745 -881 537 -537 699
-693 741 -716 48 -25 64 -28 149 -28 158 0 158 0 497 368 157 172 314 341 347
375 123 129 338 359 393 421 l30 35 524 -525 c288 -289 544 -539 569 -555 61
-42 101 -54 176 -54 90 0 156 28 235 99 88 80 124 154 124 261 0 146 27 114
-752 891 -551 549 -698 691 -738 709 -62 29 -190 37 -247 16z"/>
</g>
</svg>
